HIERARCHY
ROOT Hips
{
	OFFSET 0.000000 0.000000 0.000000
	CHANNELS 6 Xposition Yposition Zposition Zrotation Yrotation Xrotation 
	JOINT LHipJoint
	{
		OFFSET 0.000000 0.000000 0.000000
		CHANNELS 3 Zrotation Yrotation Xrotation
		JOINT LeftUpLeg
		{
			OFFSET 1.363060 -1.794630 0.839290
			CHANNELS 3 Zrotation Yrotation Xrotation
			JOINT LeftLeg
			{
				OFFSET 2.448110 -6.726130 0.000000
				CHANNELS 3 Zrotation Yrotation Xrotation
				JOINT LeftFoot
				{
					OFFSET 2.562200 -7.039590 0.000000
					CHANNELS 3 Zrotation Yrotation Xrotation
					JOINT LeftToeBase
					{
						OFFSET 0.157640 -0.433110 2.322550
						CHANNELS 3 Zrotation Yrotation Xrotation
						End Site
						{
							OFFSET 0.000000 0.000000 0.000000
						}
					}
				}
			}
		}
	}
	JOINT RHipJoint
	{
		OFFSET 0.000000 0.000000 0.000000
		CHANNELS 3 Zrotation Yrotation Xrotation
		JOINT RightUpLeg
		{
			OFFSET -1.305520 -1.794630 0.839290
			CHANNELS 3 Zrotation Yrotation Xrotation
			JOINT RightLeg
			{
				OFFSET -2.542530 -6.985550 0.000000
				CHANNELS 3 Zrotation Yrotation Xrotation
				JOINT RightFoot
				{
					OFFSET -2.568260 -7.056230 0.000000
					CHANNELS 3 Zrotation Yrotation Xrotation
					JOINT RightToeBase
					{
						OFFSET -0.164730 -0.452590 2.363150
						CHANNELS 3 Zrotation Yrotation Xrotation
						End Site
						{
							OFFSET 0.000000 0.000000 0.000000
						}
					}
				}
			}
		}
	}
	JOINT LowerBack
	{
		OFFSET 0.000000 0.000000 0.000000
		CHANNELS 3 Zrotation Yrotation Xrotation
		JOINT Spine
		{
			OFFSET 0.028270 2.035590 -0.193380
			CHANNELS 3 Zrotation Yrotation Xrotation
			JOINT Spine1
			{
				OFFSET 0.056720 2.048850 -0.042750
				CHANNELS 3 Zrotation Yrotation Xrotation
				JOINT Neck
				{
					OFFSET 0.000000 0.000000 0.000000
					CHANNELS 3 Zrotation Yrotation Xrotation
					JOINT Neck1
					{
						OFFSET -0.054170 1.746240 0.172020
						CHANNELS 3 Zrotation Yrotation Xrotation
						JOINT Head
						{
							OFFSET 0.104070 1.761360 -0.123970
							CHANNELS 3 Zrotation Yrotation Xrotation
							End Site
							{
								OFFSET 0.000000 0.000000 0.000000
							}
						}
					}
				}
				JOINT LeftShoulder
				{
					OFFSET 0.000000 0.000000 0.000000
					CHANNELS 3 Zrotation Yrotation Xrotation
					JOINT LeftArm
					{
						OFFSET 3.362410 1.200890 -0.311210
						CHANNELS 3 Zrotation Yrotation Xrotation
						JOINT LeftForeArm
						{
							OFFSET 4.983000 -0.000000 -0.000000
							CHANNELS 3 Zrotation Yrotation Xrotation
							JOINT LeftHand
							{
								OFFSET 3.483560 -0.000000 -0.000000
								CHANNELS 3 Zrotation Yrotation Xrotation
								JOINT LeftFingerBase
								{
									OFFSET 0.000000 0.000000 0.000000
									CHANNELS 3 Zrotation Yrotation Xrotation
									JOINT LeftHandIndex1
									{
										OFFSET 0.715260 -0.000000 -0.000000
										CHANNELS 3 Zrotation Yrotation Xrotation
										End Site
										{
											OFFSET 0.000000 0.000000 0.000000
										}
									}
								}
								JOINT LThumb
								{
									OFFSET 0.000000 0.000000 0.000000
									CHANNELS 3 Zrotation Yrotation Xrotation
									End Site
									{
										OFFSET 0.000000 0.000000 0.000000
									}
								}
							}
						}
					}
				}
				JOINT RightShoulder
				{
					OFFSET 0.000000 0.000000 0.000000
					CHANNELS 3 Zrotation Yrotation Xrotation
					JOINT RightArm
					{
						OFFSET -3.136600 1.374050 -0.404650
						CHANNELS 3 Zrotation Yrotation Xrotation
						JOINT RightForeArm
						{
							OFFSET -5.241900 -0.000000 -0.000000
							CHANNELS 3 Zrotation Yrotation Xrotation
							JOINT RightHand
							{
								OFFSET -3.444170 -0.000000 -0.000000
								CHANNELS 3 Zrotation Yrotation Xrotation
								JOINT RightFingerBase
								{
									OFFSET 0.000000 0.000000 0.000000
									CHANNELS 3 Zrotation Yrotation Xrotation
									JOINT RightHandIndex1
									{
										OFFSET -0.622530 -0.000000 -0.000000
										CHANNELS 3 Zrotation Yrotation Xrotation
										End Site
										{
											OFFSET 0.000000 0.000000 0.000000
										}
									}
								}
								JOINT RThumb
								{
									OFFSET 0.000000 0.000000 0.000000
									CHANNELS 3 Zrotation Yrotation Xrotation
									End Site
									{
										OFFSET 0.000000 0.000000 0.000000
									}
								}
							}
						}
					}
				}
			}
		}
	}
}
MOTION
Frames: 6
Frame Time: 0.008333
1.114271 17.998804 -7.803630 0.170899 1.356839 0.498141 -1.834879 6.013485 5.907370 -20.843933 -5.459694 -4.709661 -0.600047 4.572366 20.206933 1.409233 -4.557619 0.280068 0.007088 0.505314 1.388515 1.115690 -3.953016 2.659854 16.235322 10.753279 -32.751246 -5.058149 -12.952723 41.578524 3.543028 -13.608499 6.607678 -0.036813 1.231402 -3.385895 -2.462415 -1.692588 7.086713 3.691777 -2.217990 3.661783 3.563365 -1.198666 -9.065794 -5.690389 -3.703011 -16.736433 5.353737 -4.093724 14.152353 0.559233 -1.596948 8.064464 -7.202510 2.528112 -1.118715 -78.513145 -2.536563 25.060729 14.147410 -23.633595 -3.118898 -0.437649 -0.812477 -9.252817 28.323566 18.226422 10.164044 -7.125000 0.000000 0.000000 0.682764 51.396562 0.111761 11.294219 -2.097091 -2.722754 74.714608 -4.532077 6.801598 -9.522502 20.955624 -2.189830 0.977091 -0.454612 4.557856 -14.013864 21.265646 -5.631204 7.125000 0.000000 0.000000 8.662918 -7.943230 7.470174
1.112663 17.997465 -7.715001 0.179786 1.456190 0.668898 -1.866328 6.024040 5.943025 -20.791501 -5.494847 -4.467118 -0.654154 4.458044 19.895414 1.411116 -4.579628 0.340518 0.014265 0.748943 2.058346 1.203238 -3.924571 2.603989 16.118388 10.780950 -32.810563 -4.632234 -12.560901 39.910745 3.692746 -14.125205 7.126655 -0.046239 1.382806 -3.802886 -2.539250 -1.782059 6.927954 3.800835 -2.336457 3.551043 3.674960 -1.257990 -9.039503 -5.759110 -3.664676 -16.503904 5.283120 -4.040521 14.144063 0.555698 -1.584844 8.024993 -7.202898 2.512944 -1.114631 -78.553185 -2.564860 25.088749 14.323389 -23.888192 -3.191551 -0.439728 -0.831492 -9.383956 28.717449 18.944686 10.703733 -7.125000 0.000000 0.000000 0.963293 52.283886 0.176082 11.296423 -2.105638 -2.736329 74.570884 -4.713972 7.025072 -9.552741 21.023455 -2.211647 0.970572 -0.435260 4.365473 -13.834891 20.944231 -5.476211 7.125000 0.000000 0.000000 8.767353 -8.303290 7.499523
1.110852 17.994430 -7.627017 0.219605 1.572428 0.820431 -1.896900 6.038475 5.984114 -20.769199 -5.466153 -4.193446 -0.704576 4.342044 19.588045 1.407509 -4.577500 0.364110 0.015917 0.813354 2.235433 1.292281 -3.898384 2.548345 15.952630 10.784882 -32.826259 -4.207808 -12.147737 38.219680 3.822943 -14.578929 7.622497 -0.047395 1.404068 -3.861410 -2.619579 -1.852362 6.817859 3.855931 -2.431590 3.463256 3.751741 -1.306981 -9.028148 -5.768290 -3.661612 -16.339909 5.230915 -4.045537 14.114454 0.541657 -1.595041 7.990131 -7.199777 2.498208 -1.112398 -78.513805 -2.642832 25.314967 14.547895 -24.212120 -3.283847 -0.430928 -0.871400 -9.656588 28.998153 20.546456 11.655505 -7.125000 0.000000 0.000000 0.906028 54.143515 0.191803 11.293006 -2.113460 -2.749859 74.527773 -4.884767 7.194607 -9.641818 21.169278 -2.239790 0.988392 -0.434985 4.318627 -14.287857 21.118424 -5.704867 7.125000 0.000000 0.000000 8.478413 -8.073440 7.281738
1.108923 17.990411 -7.539408 0.277373 1.698464 0.960810 -1.926964 6.055161 6.028355 -20.764379 -5.400411 -3.901713 -0.752858 4.225071 19.283084 1.400718 -4.561366 0.366315 0.014364 0.773776 2.126606 1.382192 -3.873505 2.492829 15.758543 10.775041 -32.816644 -3.784244 -11.722188 36.515104 3.941813 -14.996107 8.104914 -0.043754 1.349815 -3.711933 -2.701936 -1.911543 6.736001 3.879716 -2.513182 3.388787 3.808320 -1.349977 -9.025459 -5.742923 -3.679014 -16.215678 5.189394 -4.084334 14.072476 0.521520 -1.618177 7.957944 -7.194618 2.483722 -1.111239 -78.428341 -2.749628 25.656189 14.800559 -24.576276 -3.387539 -0.415815 -0.923430 -10.011323 29.213185 22.660877 12.846387 -7.125000 0.000000 0.000000 0.652760 56.567321 0.179325 11.286327 -2.120861 -2.763363 74.543042 -5.049121 7.332844 -9.765035 21.360357 -2.271604 1.020333 -0.445779 4.356228 -15.107505 21.580192 -6.156134 7.125000 0.000000 0.000000 7.961218 -7.501296 6.920553
1.106912 17.986023 -7.450239 0.370262 1.714377 1.118842 -1.959633 6.075022 6.077465 -20.812712 -5.279966 -3.587212 -0.800242 4.100929 18.963777 1.358874 -4.402327 0.300890 0.009531 0.599581 1.647758 1.476847 -3.850753 2.434675 15.533267 10.824504 -32.763142 -3.372708 -11.269182 34.784882 4.037061 -15.378165 8.726049 -0.075211 1.710935 -4.708975 -2.804803 -1.925289 6.633647 3.872525 -2.536627 3.369811 3.846080 -1.366987 -8.977836 -5.706165 -3.715539 -16.352966 5.183407 -4.127763 14.152565 0.510321 -1.633523 8.004649 -7.193376 2.478105 -1.110352 -78.338132 -3.002617 25.874782 14.940570 -24.777677 -3.444688 -0.407351 -0.960630 -10.227787 29.418907 24.162970 13.716042 -7.125000 0.000000 0.000000 0.466656 58.292456 0.146631 11.276547 -2.117888 -2.763935 74.613708 -5.048849 7.296518 -9.860176 21.498141 -2.283821 1.038902 -0.510353 4.489780 -15.493550 22.971445 -6.711347 7.125000 0.000000 0.000000 7.798463 -5.984416 7.005042
1.104876 17.981522 -7.360593 0.473903 1.696579 1.282278 -1.993099 6.095855 6.128066 -20.877318 -5.142774 -3.265742 -0.847351 3.974592 18.640079 1.306300 -4.199541 0.214762 0.003693 0.384177 1.055637 1.572954 -3.828652 2.375714 15.298444 10.892122 -32.696206 -2.964854 -10.807770 33.046809 4.125078 -15.749472 9.389649 -0.117414 2.199210 -6.056992 -2.913950 -1.925126 6.525019 3.855852 -2.542273 3.367823 3.878079 -1.376042 -8.916458 -5.665919 -3.757918 -16.570309 5.188297 -4.172610 14.270022 0.501859 -1.646484 8.075504 -7.193333 2.475204 -1.109549 -78.246470 -3.300359 26.055836 15.046096 -24.929254 -3.487588 -0.400922 -0.993289 -10.401922 29.621779 25.477615 14.487363 -7.125000 0.000000 0.000000 0.301113 59.803713 0.107749 11.265817 -2.111739 -2.760548 74.701331 -4.998181 7.206754 -9.946722 21.619609 -2.290039 1.053379 -0.591390 4.652705 -15.746860 24.647234 -7.298379 7.125000 0.000000 0.000000 7.744210 -4.178331 7.225963
